<svg width="20" height="20" viewBox="0 0 20 20" fill="none" xmlns="http://www.w3.org/2000/svg">
<path d="M15.8333 9.1665H4.16667C3.24619 9.1665 2.5 9.9127 2.5 10.8332V16.6665C2.5 17.587 3.24619 18.3332 4.16667 18.3332H15.8333C16.7538 18.3332 17.5 17.587 17.5 16.6665V10.8332C17.5 9.9127 16.7538 9.1665 15.8333 9.1665Z" stroke="#8E9798" stroke-width="2" stroke-linecap="round" stroke-linejoin="round"/>
<path d="M5.83398 9.1665V5.83317C5.83398 4.7281 6.27297 3.66829 7.05437 2.88689C7.83577 2.10549 8.89558 1.6665 10.0007 1.6665C11.1057 1.6665 12.1655 2.10549 12.9469 2.88689C13.7283 3.66829 14.1673 4.7281 14.1673 5.83317V9.1665" stroke="#8E9798" stroke-width="2" stroke-linecap="round" stroke-linejoin="round"/>
</svg>
