<svg width="54" height="55" viewBox="0 0 54 55" fill="none" xmlns="http://www.w3.org/2000/svg">
<path fill-rule="evenodd" clip-rule="evenodd" d="M0.00195312 27.3517C0.00195313 20.1908 2.84661 13.3232 7.91012 8.25973C12.9736 3.19621 19.8412 0.351563 27.0021 0.351562C34.163 0.351563 41.0306 3.19621 46.0941 8.25973C51.1576 13.3232 54.0023 20.1908 54.0023 27.3517C54.0023 34.5126 51.1576 41.3802 46.0941 46.4437C41.0306 51.5072 34.163 54.3519 27.0021 54.3519C19.8412 54.3519 12.9736 51.5072 7.91012 46.4437C2.84661 41.3802 0.00195313 34.5126 0.00195312 27.3517ZM27.0021 3.72658C22.5531 3.72682 18.1945 4.98331 14.4281 7.35145C10.6617 9.71958 7.64058 13.1031 5.71237 17.1126C3.78415 21.122 3.02728 25.5945 3.52884 30.0151C4.03041 34.4358 5.77004 38.625 8.54751 42.1006C10.9438 38.2395 16.2189 34.1018 27.0021 34.1018C37.7853 34.1018 43.0571 38.2362 45.4567 42.1006C48.2342 38.625 49.9738 34.4358 50.4754 30.0151C50.977 25.5945 50.2201 21.122 48.2919 17.1126C46.3637 13.1031 43.3425 9.71958 39.5761 7.35145C35.8097 4.98331 31.4511 3.72682 27.0021 3.72658Z" fill="black"/>
</svg>
