<svg width="45" height="47" viewBox="0 0 45 47" fill="none" xmlns="http://www.w3.org/2000/svg">
<path d="M26.4058 46.769H18.0641C17.5415 46.7691 17.0345 46.5907 16.6272 46.2634C16.22 45.9361 15.937 45.4796 15.8252 44.9696L14.8924 40.6563C13.6482 40.1116 12.4684 39.4305 11.3747 38.6255L7.16494 39.9649C6.66665 40.1236 6.129 40.1073 5.64126 39.9186C5.15353 39.73 4.74506 39.3803 4.48369 38.9277L0.303694 31.7138C0.0450688 31.2608 -0.0520127 30.7335 0.0283328 30.2182C0.108678 29.7029 0.361694 29.2301 0.745986 28.8772L4.01161 25.9009C3.8631 24.5527 3.8631 23.1923 4.01161 21.844L0.745986 18.8746C0.361149 18.5216 0.10779 18.0483 0.0274313 17.5325C-0.0529273 17.0168 0.0444821 16.489 0.303694 16.0358L4.47453 8.81718C4.73589 8.3646 5.14436 8.01495 5.63209 7.82629C6.11983 7.63763 6.65749 7.62132 7.15578 7.78007L11.3656 9.11939C11.9247 8.70729 12.5068 8.32267 13.1072 7.97467C13.687 7.64957 14.2829 7.35424 14.8924 7.09095L15.8274 2.78225C15.9388 2.27216 16.2212 1.8154 16.628 1.48769C17.0348 1.15998 17.5415 0.981018 18.0641 0.980469H26.4058C26.9284 0.981018 27.4351 1.15998 27.8419 1.48769C28.2487 1.8154 28.5311 2.27216 28.6424 2.78225L29.5866 7.09324C30.8301 7.6379 32.0092 8.31899 33.102 9.12397L37.3141 7.78465C37.8121 7.62649 38.3492 7.6431 38.8365 7.83172C39.3237 8.02035 39.7318 8.36967 39.9931 8.82176L44.1639 16.0403C44.6956 16.9721 44.5122 18.1512 43.7216 18.8769L40.456 21.8532C40.6045 23.2014 40.6045 24.5618 40.456 25.9101L43.7216 28.8863C44.5122 29.6144 44.6956 30.7911 44.1639 31.7229L39.9931 38.9415C39.7317 39.3941 39.3232 39.7437 38.8355 39.9324C38.3478 40.121 37.8101 40.1373 37.3118 39.9786L33.102 38.6393C32.0092 39.4437 30.8301 40.124 29.5866 40.6677L28.6424 44.9696C28.5307 45.4792 28.248 45.9355 27.8413 46.2627C27.4345 46.59 26.928 46.7686 26.4058 46.769ZM12.1974 33.5568L14.0766 34.9304C14.5006 35.2418 14.9406 35.528 15.3989 35.7889C15.8297 36.0385 16.2697 36.2629 16.7258 36.4666L18.8639 37.403L19.9112 42.1902H24.5633L25.6106 37.4007L27.7487 36.4643C28.6814 36.0522 29.5683 35.5417 30.391 34.9396L32.2702 33.5659L36.9497 35.054L39.2758 31.0292L35.6481 27.7256L35.9047 25.4087C36.0193 24.3945 36.0193 23.3711 35.9047 22.3592L35.6481 20.0423L39.2781 16.7317L36.9497 12.7046L32.2724 14.1928L30.391 12.8191C29.5678 12.214 28.682 11.699 27.7487 11.2829L25.6106 10.3465L24.5633 5.55933H19.9112L18.857 10.3488L16.7258 11.2829C15.7912 11.6918 14.905 12.2032 14.0835 12.8077L12.202 14.1813L7.52703 12.6932L5.1964 16.7317L8.82411 20.0308L8.56744 22.35C8.45286 23.3642 8.45286 24.3876 8.56744 25.3995L8.82411 27.7164L5.1964 31.0201L7.52244 35.0449L12.1974 33.5568ZM22.2258 33.0325C19.7946 33.0325 17.463 32.0676 15.744 30.3502C14.0249 28.6328 13.0591 26.3035 13.0591 23.8748C13.0591 21.446 14.0249 19.1167 15.744 17.3993C17.463 15.6819 19.7946 14.717 22.2258 14.717C24.6569 14.717 26.9885 15.6819 28.7076 17.3993C30.4267 19.1167 31.3924 21.446 31.3924 23.8748C31.3924 26.3035 30.4267 28.6328 28.7076 30.3502C26.9885 32.0676 24.6569 33.0325 22.2258 33.0325ZM22.2258 19.2959C21.3283 19.2968 20.4508 19.5609 19.7022 20.0556C18.9535 20.5502 18.3668 21.2535 18.0146 22.0782C17.6625 22.9029 17.5604 23.8128 17.7212 24.695C17.882 25.5771 18.2985 26.3927 18.919 27.0405C19.5395 27.6883 20.3368 28.1398 21.2119 28.3391C22.0869 28.5384 23.0013 28.4766 23.8415 28.1614C24.6818 27.8462 25.4109 27.2915 25.9384 26.5661C26.466 25.8407 26.7687 24.9765 26.8091 24.0808V24.9966V23.8748C26.8091 22.6604 26.3262 21.4957 25.4667 20.637C24.6071 19.7783 23.4414 19.2959 22.2258 19.2959Z" fill="white"/>
</svg>
