<svg width="30" height="29" viewBox="0 0 30 29" fill="none" xmlns="http://www.w3.org/2000/svg">
<path d="M25.5067 4.42031C22.7009 1.79531 18.9643 0.351562 14.9933 0.351562C6.79687 0.351562 0.127232 6.57656 0.127232 14.2266C0.127232 16.6703 0.810268 19.0578 2.10938 21.1641L0 28.3516L7.8817 26.4203C10.0513 27.5266 12.4955 28.1078 14.9866 28.1078H14.9933C23.183 28.1078 30 21.8828 30 14.2328C30 10.5266 28.3125 7.04531 25.5067 4.42031ZM14.9933 25.7703C12.7701 25.7703 10.5937 25.2141 8.69866 24.1641L8.25 23.9141L3.57589 25.0578L4.82143 20.8016L4.52679 20.3641C3.28795 18.5266 2.63839 16.4078 2.63839 14.2266C2.63839 7.87031 8.18303 2.69531 15 2.69531C18.3013 2.69531 21.4018 3.89531 23.7321 6.07656C26.0625 8.25781 27.4955 11.1516 27.4888 14.2328C27.4888 20.5953 21.8036 25.7703 14.9933 25.7703ZM21.7701 17.1328C21.4018 16.9578 19.5737 16.1203 19.2321 16.0078C18.8906 15.8891 18.6429 15.8328 18.3951 16.1828C18.1473 16.5328 17.4375 17.3078 17.2165 17.5453C17.0022 17.7766 16.7812 17.8078 16.4129 17.6328C14.2299 16.6141 12.7969 15.8141 11.3571 13.5078C10.9754 12.8953 11.7388 12.9391 12.4487 11.6141C12.5692 11.3828 12.5089 11.1828 12.4152 11.0078C12.3214 10.8328 11.5781 9.12656 11.2701 8.43281C10.9688 7.75781 10.6607 7.85156 10.433 7.83906C10.2188 7.82656 9.97098 7.82656 9.72321 7.82656C9.47545 7.82656 9.07366 7.91406 8.73214 8.25781C8.39062 8.60781 7.43304 9.44531 7.43304 11.1516C7.43304 12.8578 8.76562 14.5078 8.94643 14.7391C9.13393 14.9703 11.5647 18.4703 15.2946 19.9766C17.6518 20.9266 18.5759 21.0078 19.7545 20.8453C20.471 20.7453 21.9509 20.0078 22.2589 19.1953C22.567 18.3828 22.567 17.6891 22.4732 17.5453C22.3862 17.3891 22.1384 17.3016 21.7701 17.1328Z" fill="black"/>
</svg>
