<svg width="24" height="6" viewBox="0 0 24 6" fill="none" xmlns="http://www.w3.org/2000/svg">
<path d="M12 0.101562C10.35 0.101562 9 1.33906 9 2.85156C9 4.36406 10.35 5.60156 12 5.60156C13.65 5.60156 15 4.36406 15 2.85156C15 1.33906 13.65 0.101562 12 0.101562ZM21 0.101562C19.35 0.101562 18 1.33906 18 2.85156C18 4.36406 19.35 5.60156 21 5.60156C22.65 5.60156 24 4.36406 24 2.85156C24 1.33906 22.65 0.101562 21 0.101562ZM3 0.101562C1.35 0.101562 0 1.33906 0 2.85156C0 4.36406 1.35 5.60156 3 5.60156C4.65 5.60156 6 4.36406 6 2.85156C6 1.33906 4.65 0.101562 3 0.101562Z" fill="#2A2A2B"/>
</svg>
